# xmcd
#
# Track frame offsets: 
#        150
#        19923
#        36768
#        51443
#        68125
#        85470
#        104297
#        117489
#        135270
#        151829
#        168456
#
# Disc length: 2533 seconds
#
# Revision: 0
# Processed by: cddbd v1.5.2PL0 Copyright (c) Steve Scherf et al.
# Submitted via: ExactAudioCopy v1.0b2
#
DISCID=8f09e30b
DTITLE=Dani Carroll - Unbreakable
DYEAR=2006
DGENRE=Country
TTITLE0=Eve Of Destruction
TTITLE1=A Man's Voice
TTITLE2=Go Easy
TTITLE3=Like A Fever
TTITLE4=Desperately Blue
TTITLE5=I Never Stopped Loving You
TTITLE6=I Used To Miss You
TTITLE7=The Woman You Love
TTITLE8=Lovesick Girl
TTITLE9=Completely
TTITLE10=Unbreakable
EXTD=
EXTT0=
EXTT1=
EXTT2=
EXTT3=
EXTT4=
EXTT5=
EXTT6=
EXTT7=
EXTT8=
EXTT9=
EXTT10=
PLAYORDER=
